<?xml version="1.0" encoding="utf-8"?>
<!-- Generator: Adobe Illustrator 22.0.1, SVG Export Plug-In . SVG Version: 6.00 Build 0)  -->
<svg version="1.1"
	 id="svg20" inkscape:version="0.92.3 (2405546, 2018-03-11)" sodipodi:docname="iosclub.svg" xmlns:cc="http://creativecommons.org/ns#" xmlns:dc="http://purl.org/dc/elements/1.1/" xmlns:inkscape="http://www.inkscape.org/namespaces/inkscape" xmlns:rdf="http://www.w3.org/1999/02/22-rdf-syntax-ns#" xmlns:sodipodi="http://sodipodi.sourceforge.net/DTD/sodipodi-0.dtd" xmlns:svg="http://www.w3.org/2000/svg"
	 xmlns="http://www.w3.org/2000/svg" xmlns:xlink="http://www.w3.org/1999/xlink" x="0px" y="0px" viewBox="0 0 138 187"
	 style="enable-background:new 0 0 138 187;" xml:space="preserve">
<style type="text/css">
	.st0{fill:#FFFFFF;}
</style>
<sodipodi:namedview  bordercolor="#666666" borderopacity="1" gridtolerance="10" guidetolerance="10" id="namedview22" inkscape:current-layer="svg20" inkscape:cx="48.130412" inkscape:cy="161.08266" inkscape:pageopacity="0" inkscape:pageshadow="2" inkscape:window-height="1017" inkscape:window-maximized="1" inkscape:window-width="1920" inkscape:window-x="-8" inkscape:window-y="-8" inkscape:zoom="5.3543487" objecttolerance="10" pagecolor="#ffffff" showgrid="false">
	</sodipodi:namedview>
<g id="g18" transform="translate(0.000000,187.000000) scale(0.050000,-0.050000)">
	
		<path id="path4" inkscape:connector-curvature="0" sodipodi:nodetypes="sccccsccscccccccccccccssccsccsccscccsscssscsccccccccccsccccscccscccccccccccccccccccccccccccccccccsccccsscscccssscss" class="st0" d="
		M1790.8,3722.8c-54.2-0.9-110.1-9.4-166.8-25.8c-36-10-112-63-167-117l-102-98l-513-6c-816-10-802,9-802-1032
		c0-808-27-723,346-1100c280-285,380-358,455-334c35,11,39,2,39-78c0-49,11-113,23-142c19-41,18-64-10-121c-99-209-8-486,197-596
		c176-95,1354-70,1491,31c165,122,184,488,31,614c-31,26-30,32,16,80c112,116,144,311,74,448c-36,70-36,81-7,173
		c79,245-201,411-535,317l-50-14l6,443c6,410,10,445,45,470c159,111,217,620,94,829C2155,3633.5,1984.2,3726.2,1790.8,3722.8z
		 M1920.1,2841.6l-0.2-24.6l-1-570c0-589,46-547-613-547H830l7-240c3-132,1-240-6-240c-7,0-143,131-302,291l-289,290v269
		c0,66.9,9.1,268.6,10.4,298.3c5.4-36.1,12.2-62.4,20.6-74.3c72-103,153.2-42.7,156,129c1.7,188.3,74.9,187,100,187
		c28.1,0,114,1.5,113-286c-0.8-242,41.6-244.9,95.4-244.8c59.1,0.1,84.6,57.8,84.6,320.8c0,269,8.3,233.2,58,335
		c12.8,26.3,29.9,61.9,59,65c110.9,12,496,10,496,10C1666.8,2814.7,1920.2,2868.4,1920.1,2841.6z M1172.6,1559.3
		c23.3,0.7,46.8-6.7,63.4-23.3c40-40,27-95-27-120c-71-32-145,36-110,102C1113.1,1543.9,1142.6,1558.4,1172.6,1559.3z M2331.7,1554
		c29.1,0.7,60.2-1.4,93.3-7c59-10,75-21,75-55c-1-70-25-85-140-84c-163,3-168-61-11-126c294-122,233-402-87-402
		c-153,0-203,25-184,94c16,58,20,59,162,35c164-28,183,92,24,151C1967.7,1270.6,2050.8,1547,2331.7,1554L2331.7,1554z
		 M1676.7,1547.2c53.7,1.8,109.2-9.6,162.3-37.2c88-45,143-137,155-258c45-434-577-528-645-98
		C1314.6,1365.7,1484.7,1540.8,1676.7,1547.2z M1100,1360h80h80v-240V880h-80h-80v240V1360z M1520,760h60h60V500V240h-60h-60v260
		V760z M2122,760h72h71l-13-99l-13-98l58,29c149,74,279-107,194-271c-30-57-138-111-176-88c-12,7-58,12-103,10l-82-3l-4,260
		L2122,760z M1399.2,742.9c31.4-0.2,56-4.1,64.8-12.9c45-46-12-104-93-95c-112,13-171-40-171-152c0-105,56-154,172-151
		c119,3,134-82,19-103c-292-55-451,312-204,470C1227.6,725.1,1330,743.2,1399.2,742.9L1399.2,742.9z M1760,600c60,0,60,0,60-118
		c0-123,31-177,90-155c22,9,30,44,30,142v131h60h60V420c0-179,0-180-50-180c-27,0-50,9-50,19c0,11-26,4-58-14
		c-122-70-202,23-202,236C1700,600,1700,600,1760,600z"/>
	<path id="path8" inkscape:connector-curvature="0" class="st0" d="M1145,2437.8c-43-18-30-103,18-118c58-18,104,40,76,94
		C1219,2450.8,1193,2456.8,1145,2437.8z"/>
	<path id="path10" inkscape:connector-curvature="0" class="st0" d="M1674,2438.8c-25-26-15-103,16-115c53-21,93,9,86,65
		C1770,2439.8,1707,2470.8,1674,2438.8z"/>
	<path id="path12" inkscape:connector-curvature="0" sodipodi:nodetypes="ccscscss" class="st0" d="M1345,2130.8
		c-129.7,0-36.5-202,137-202c211.2,0,267.6,205,118,205C1493,2133.8,1345,2130.8,1345,2130.8z M1640,2079.8c0-103-157-159-247-88
		c-103,82-73,119,97,119C1612,2110.8,1640,2104.8,1640,2079.8z"/>
	<path id="path14" class="st0" d="M1562,1368c-105-133-29-376,113-364c95,8,155,88,155,206C1830,1389,1658,1491,1562,1368z"/>
	<path id="path16" class="st0" d="M2263,485c-34-67-1-165,57-165s94,84,64,150C2357,528,2290,537,2263,485z"/>
</g>
</svg>
