<?xml version="1.0" encoding="utf-8"?>
<!-- Generator: Adobe Illustrator 22.0.1, SVG Export Plug-In . SVG Version: 6.00 Build 0)  -->
<svg version="1.1" id="Layer_1" xmlns="http://www.w3.org/2000/svg" xmlns:xlink="http://www.w3.org/1999/xlink" x="0px" y="0px"
	 viewBox="0 0 100 100" style="enable-background:new 0 0 100 100;" xml:space="preserve">
<style type="text/css">
	.st0{fill-rule:evenodd;clip-rule:evenodd;fill:#FFFFFF;}
</style>
<path class="st0" d="M50.6,0.4c28.2,0.1,49.5,23.5,49.4,49.8c-0.2,26.3-21.3,50.4-52.3,49.3c9.4-10.8,28.3-40.3,2.1-40.3l-16.5,0
	c6.3-5,11.9-10.9,22-12.2c4.2-0.6,9.3-4.2,10.5-8.6c-3.8-1.1-6.8-2.3-10.2-4.2c-0.9,4.6-6.9,9.6-13,6.1c-5.1-3-5.8-10.1-1.3-13.7
	c-6.8,0-9.5,9.9-12.3,10.5l-0.2,0h-0.2l-0.4,0l-0.2,0c-5.2-3.1,4.5-21,16.9-13.6c8.2,4.8,16.2,14.5,26.5,13.8
	c1.6-6.9,0.5-11-5.1-15.2c-16.8-10.7-41.7-8.6-59.2-1c-5-3.4-7.7-9.2-7-10.2c6.6,9.2,16.1,3.1,19.2,0.6C27.9,4.4,38.6,0.4,50.6,0.4
	L50.6,0.4z M56.7,48.5c-8.1,0.5-11.5,4.8-15,9l43.1-0.2c8.4-0.4,10.2,4.4,11.9,10c0.6,0,8.5-27.9-28.9-28.4
	c-0.2,1.3-1.4,3.4-3.2,5.3c-0.9,1.4,2.4,2.1,3.6-0.2c0.7-1.4,2.3-1.3,2.8-0.2c0.5,1.1-0.4,2.3-1,2.2c-1.5-0.2-1.9,0.1-2.2,0.6
	c-0.6,0.8,0.2,1.6,0.1,2.5c-0.1,0.6-0.3,1.5-1.6,1.4c-0.8-0.1-1.4-1.1-1.1-2c0.7-2-1.7-3.3-2.6-2.5l0.1-0.1
	C61,47.4,58.9,48.4,56.7,48.5L56.7,48.5z M53.5,32.8L49.9,31c0,0,0,0,0,0l0,0l0,0l0,0l-5.8,0.9l5.9,1.1c-0.3,1.6-1.8,2.8-3.5,2.8
	c-2,0-3.6-1.6-3.6-3.6c0-1.6,1.1-3,2.6-3.4l-3.6-1.8c-1.5,1.3-2.4,3.2-2.4,5.2c0,3.9,3.1,7,7,7C50.2,39.2,53.2,36.3,53.5,32.8
	L53.5,32.8z M32.5,22.2c-8.5,4.9-13.9,9-23.7,7.1C8.3,29.2,8,29.6,8.5,30c0.9,0.6,5.9,0.7,6.9,0.7c3.5,0.1,7.3,1.8,9.4,4.5
	C24.6,34.3,23,28.2,32.5,22.2z"/>
</svg>
